<?xml version="1.0" encoding="utf-8"?>
<!-- Uploaded to: SVG Repo, www.svgrepo.com, Generator: SVG Repo Mixer Tools -->
<svg width="800px" height="800px" viewBox="0 -68.46 454.8 454.8" xmlns="http://www.w3.org/2000/svg"><defs><style>.a{fill:#211715;}.b{fill:#a98a75;}.c{fill:#ffffff;}.d{fill:#f8b8b4;}</style></defs><path class="a" d="M0,2.318A75.362,75.362,0,0,0,8.07,36.952,63.4,63.4,0,0,0,30.053,61.01,66.885,66.885,0,0,0,47.3,68.774L45.539,66.46c.05,12.592,3.306,25.307,10.591,35.7a55.477,55.477,0,0,0,28.117,20.748,63.9,63.9,0,0,0,21.443,3.111l-2.073-1.188a63.643,63.643,0,0,0,21,22.03,69.593,69.593,0,0,0,30,10.138,83.007,83.007,0,0,0,21.677-.634,2.416,2.416,0,0,0,1.676-2.952,2.458,2.458,0,0,0-2.952-1.676c-20.511,3.218-42.632-1.851-57.63-16.737a59.151,59.151,0,0,1-9.622-12.592,2.4,2.4,0,0,0-2.072-1.189,56.421,56.421,0,0,1-32.82-9.144,50.316,50.316,0,0,1-19.261-25.41,62.83,62.83,0,0,1-3.27-20.2,2.452,2.452,0,0,0-1.762-2.314A60.228,60.228,0,0,1,22.346,48.6,61.132,61.132,0,0,1,7.265,21.676,75.11,75.11,0,0,1,4.8,2.318C4.793-.77-.007-.776,0,2.318Z"/><path class="a" d="M307.85,157c19.208-.046,38.39-7.135,50.607-22.442a60.686,60.686,0,0,0,8.026-13.151l-2.072,1.189c19.164-.069,38.528-4.924,54.315-16.08A84.047,84.047,0,0,0,449.82,63.708a106.43,106.43,0,0,0,4.98-32.831c0-3.089-4.8-3.093-4.8,0-.027,18.215-4.4,36.469-14.546,51.738a77.518,77.518,0,0,1-39.632,30.179,98.474,98.474,0,0,1-31.411,5,2.356,2.356,0,0,0-2.072,1.188,55.382,55.382,0,0,1-15.214,20.26A56.477,56.477,0,0,1,324.042,150.4a71.239,71.239,0,0,1-16.192,1.8c-3.088.008-3.094,4.808,0,4.8Z"/><path class="b" d="M204.857,271.528c-12.518,2.617-20.977-7.052-21.218-14.259a84.321,84.321,0,0,1,1.819-18.078c1.7-7.219,2.6-19.827,1.878-37.228-1.923-25.639,4.054-44.539,14.276-55.176,6.161-6.412,20.275-15.387,36.525-16.064a59.053,59.053,0,0,1,23.776,3.534l3.665,1.311,3.717,1.972c3.21,1.7,4.393,3.229,7.747,6.185,8.422,7.422,14.632,21.148,16.05,33.612.409,3.6,1.275,12.188,1.34,19.463a135.39,135.39,0,0,0,6.724,36.733c2.369,6.927,5.532,15.836,3.58,22.893-2.382,8.612-11.978,14.252-20.629,11.571Z"/><path class="c" d="M260.631,174.616c-1.485-3.591-3.009-8.173-4.207-12.1a55.074,55.074,0,0,1-26.594,21.115,3.963,3.963,0,0,1-2.293.2c-.878-.372-1.136-.755-1.11-1.892.066-2.831,1-7.543,1.211-10.285-9,9.609-19.048,19.891-27.853,27.029a6.588,6.588,0,0,0-4.073-1.026,5.981,5.981,0,0,0-5.256,3.19c-1.7,3.235-1.4,9.064-.039,12.626.966,2.522,2.537,6.377,6.071,9.048a6.968,6.968,0,0,0,5.982,1.256,49.008,49.008,0,0,0,9.972,17.185,38.02,38.02,0,0,0,11.833,9.248,61.716,61.716,0,0,1-.054,7.185,8.406,8.406,0,0,1-3.268,4.942c-2.572,1.562-6.338,2.476-9.45,3.4,6.1,6.493,20.207,10.157,33.517,9.687,13.037-.541,25.625-4.56,32.324-11.809,0,0,.036-.039.108-.111-3.606-.627-8.092-1.753-10.326-3.241a6.545,6.545,0,0,1-3.038-4.024,40.378,40.378,0,0,1-.964-7.5c9.472-5.59,16.6-19.032,17.838-22.847a41.94,41.94,0,0,0,1.69-5.186l.527.068a7.107,7.107,0,0,0,5.415-1.791c3.318-2.935,4.59-6.9,5.359-9.488,1.086-3.655.939-9.49-1.007-12.585a5.985,5.985,0,0,0-5.486-2.778,6.416,6.416,0,0,0-4.614,1.916c-7.055-1.736-15.254-8.758-20.25-17.31A35.152,35.152,0,0,1,260.631,174.616Z"/><path class="a" d="M292.032,196.8a140.367,140.367,0,0,0,6.81,37.371c1.8,5.284,3.843,10.735,4.08,16.368a14.715,14.715,0,0,1-4.86,12.068,14.122,14.122,0,0,1-13.317,3.076c-2.967-.882-4.235,3.749-1.276,4.628,10.2,3.032,21.783-3.877,23.848-14.377,1.189-6.045-.345-12.278-2.172-18.036-1.957-6.166-4.055-12.214-5.414-18.556a146.9,146.9,0,0,1-2.9-22.542c-.173-3.071-4.974-3.091-4.8,0Z"/><path class="a" d="M268.083,139.613a22.079,22.079,0,0,1,4.476,3.271c1.574,1.443,3.214,2.833,4.7,4.369a44.227,44.227,0,0,1,7.2,10.255,63.377,63.377,0,0,1,6.641,23.7c.5,5.183.878,10.387.935,15.6.034,3.087,4.834,3.095,4.8,0-.053-4.86-.388-9.716-.836-14.555a86.856,86.856,0,0,0-1.763-12.175,58.358,58.358,0,0,0-12.475-25.013,75,75,0,0,0-5.538-5.321,28.569,28.569,0,0,0-5.714-4.268c-2.717-1.47-5.143,2.673-2.423,4.145Z"/><path class="a" d="M262.551,131.943a63.18,63.18,0,0,0-26.577-3.481,60.034,60.034,0,0,0-25.744,8.622A47.413,47.413,0,0,0,195.383,150.7a59.3,59.3,0,0,0-8.467,20.138,104.047,104.047,0,0,0-1.98,31.122,2.458,2.458,0,0,0,2.4,2.4,2.42,2.42,0,0,0,2.4-2.4c-1.143-15.6.03-32.657,8.233-46.4,7.23-12.115,21.378-19.792,35.243-21.97a57.669,57.669,0,0,1,28.063,2.981,2.4,2.4,0,0,0,1.276-4.629Z"/><path class="a" d="M184.936,201.963c.293,7.172.378,14.362.018,21.533a87.1,87.1,0,0,1-1.619,14.208,87.44,87.44,0,0,0-2.115,18.151,17.6,17.6,0,0,0,5.608,12.941,20.721,20.721,0,0,0,18.667,5.046,2.425,2.425,0,0,0,1.677-2.952,2.449,2.449,0,0,0-2.953-1.676,15.677,15.677,0,0,1-13.89-3.71,14.346,14.346,0,0,1-3.52-4.944,15.3,15.3,0,0,1-.713-2.537c-.127-.754.019.453-.031-.3-.01-.153-.02-.306-.026-.459-.034-.75-.024-1.5-.011-2.255a86.365,86.365,0,0,1,1.982-16.253,95.663,95.663,0,0,0,1.687-14.188c.428-7.528.347-15.08.039-22.61-.126-3.078-4.927-3.094-4.8,0Z"/><path class="d" d="M164.444,315.485c2.278-10.779,6.174-22.621,10.941-29.786,8.173-12.332,21.947-15.477,35.9-20.21,5.968,6.65,20.259,10.412,33.735,9.936,13.46-.558,26.443-4.825,32.958-12.526,14.726,4.19,25.234,8.085,33.52,16.227,5.887,6.472,12.59,19.541,15.431,36.359Z"/><path class="a" d="M166.759,316.123a128,128,0,0,1,4.393-15.842,61.267,61.267,0,0,1,6.028-12.946c4.948-7.678,12.98-11.98,21.341-15.035,5.07-1.853,10.251-3.384,15.345-5.167a2.46,2.46,0,0,0,1.677-2.952,2.423,2.423,0,0,0-2.953-1.677c-9.265,3.243-19.1,5.614-27.541,10.8a37.99,37.99,0,0,0-10.731,9.754,55.685,55.685,0,0,0-6.837,13.343,122.683,122.683,0,0,0-5.351,18.449c-.641,3.013,3.985,4.3,4.629,1.276Z"/><path class="a" d="M276.755,265.046c9.724,2.758,19.75,5.7,28.1,11.61a31.756,31.756,0,0,1,8.2,8.383,65.478,65.478,0,0,1,6.255,12.008,93.841,93.841,0,0,1,5.308,19.076,2.42,2.42,0,0,0,2.953,1.676,2.455,2.455,0,0,0,1.676-2.952c-1.866-10.888-5.428-21.843-11.384-31.214a36.922,36.922,0,0,0-8.483-9.546,57.086,57.086,0,0,0-12.884-7.453,154.525,154.525,0,0,0-18.461-6.217c-2.977-.844-4.248,3.786-1.276,4.629Z"/><path class="a" d="M202.132,197.488a9.429,9.429,0,0,0-10.3-1.228,9.022,9.022,0,0,0-4.558,6.533,23.353,23.353,0,0,0,4.25,18.018c2.706,3.63,6.443,6.2,11.139,5.4a2.419,2.419,0,0,0,1.676-2.952,2.455,2.455,0,0,0-2.952-1.677c-3.013.517-5.48-2.578-6.825-4.847a19.817,19.817,0,0,1-2.744-7.593c-.3-2.43-.362-5.5,1.03-7.62.306-.465-.09.067.234-.285.039-.043.5-.473.286-.3a4.022,4.022,0,0,1,1.6-.739,4.328,4.328,0,0,1,3.774.691,2.468,2.468,0,0,0,3.394,0,2.418,2.418,0,0,0,0-3.394Z"/><path class="a" d="M284.565,197.715a4.359,4.359,0,0,1,3.782-1.135,3.431,3.431,0,0,1,2.48,1.436c-.237-.3-.056-.081.046.107.147.27.313.522.439.8a10.258,10.258,0,0,1,.593,1.98,17.169,17.169,0,0,1,.3,4.514,19.556,19.556,0,0,1-2.044,7.479c-1.358,2.759-3.556,5.8-6.978,5.476a2.417,2.417,0,0,0-2.4,2.4,2.451,2.451,0,0,0,2.4,2.4c7.364.688,11.558-7.335,13.174-13.342a22.139,22.139,0,0,0,.217-10.027,10.1,10.1,0,0,0-4.262-6.822,9.363,9.363,0,0,0-11.137,1.336c-2.223,2.153,1.173,5.546,3.394,3.394Z"/><path class="a" d="M281,217.014a40.186,40.186,0,0,1-1.313,5.328c-.432,1.385-.8,2.321-1.174,3.312-.058.151-.117.3-.174.454-.17.455-.009.032-.033.088-.19.427-.381.853-.583,1.274-.464.968-.964,1.918-1.486,2.856a51.115,51.115,0,0,1-10.488,13.532,20.273,20.273,0,0,1-7.925,4.565c-2.976.812-1.713,5.444,1.276,4.628,6.271-1.711,11.345-6.442,15.3-11.412a57.954,57.954,0,0,0,8.454-13.972c.139-.339.272-.681.392-1.027-.241.7.258-.653.342-.876.144-.379.277-.762.406-1.146a41.27,41.27,0,0,0,1.637-6.328,2.472,2.472,0,0,0-1.677-2.952A2.419,2.419,0,0,0,281,217.014Z"/><path class="a" d="M199.215,221.285c4.209,15.724,16.6,31.863,33.729,33.741a2.416,2.416,0,0,0,2.4-2.4,2.456,2.456,0,0,0-2.4-2.4c-7.44-.816-13.58-5.254-18.512-10.636a46.922,46.922,0,0,1-10.589-19.581c-.8-2.981-5.429-1.716-4.628,1.276Z"/><path class="a" d="M239.364,232.52c.3-.172.593-.34.9-.493a3.54,3.54,0,0,0,.546-.255c-.385.3-.351.144-.065.036.116-.044.234-.086.351-.126a13.3,13.3,0,0,1,1.789-.47c.2-.039.407-.071.611-.1-.362.06-.056.007.138-.014q.677-.072,1.357-.1a17.527,17.527,0,0,1,2.457.068c.266.027.4.064.055,0,.181.033.363.06.545.1.273.055.544.119.813.194s.51.159.763.247c.446.156-.132,0-.155-.072a2.352,2.352,0,0,0,.318.148,6.159,6.159,0,0,1,.868.521,2.411,2.411,0,0,0,3.284-.861,2.467,2.467,0,0,0-.861-3.284c-2.255-1.622-5.4-1.96-8.087-1.859a17.079,17.079,0,0,0-8.049,2.179,2.4,2.4,0,1,0,2.423,4.145Z"/><path class="a" d="M243.088,211.6c.205.676.4,1.357.576,2.039a18.3,18.3,0,0,1,.5,2.175l-.086-.638a2.222,2.222,0,0,1,.009.439l.085-.638a1.24,1.24,0,0,1-.065.262l.242-.573a.941.941,0,0,1-.1.167l.376-.486a.629.629,0,0,1-.094.092l.485-.375a2.629,2.629,0,0,1-.4.224l.573-.242a2.247,2.247,0,0,1-.526.152l.638-.085a2.359,2.359,0,0,1-.557,0l.638.086c-.368-.05-.733-.116-1.1-.151a2.4,2.4,0,0,0-1.7.7,2.4,2.4,0,0,0,0,3.394,2.722,2.722,0,0,0,1.7.7l.1.01-.638-.085a8.489,8.489,0,0,0,1.364.161,4.637,4.637,0,0,0,2.1-.578,3.115,3.115,0,0,0,1.585-2.029,4.984,4.984,0,0,0-.073-2.183c-.27-1.286-.619-2.558-1-3.815a2.509,2.509,0,0,0-1.1-1.434,2.4,2.4,0,0,0-3.525,2.71Z"/><path class="a" d="M221.348,200.852c-.6,2.244.044,7.329,4.262,7.6,5.552-.247,5.611-6.427,3.63-9.255C227.618,196.883,223.079,196.068,221.348,200.852Z"/><path class="a" d="M265.821,199.144c.768,2.191.519,7.311-3.666,7.906-5.555.18-6.087-5.977-4.329-8.949C259.265,195.667,263.728,194.507,265.821,199.144Z"/><path class="a" d="M220.244,187.486a9.7,9.7,0,0,1-1.255,1.114l.485-.376a15.421,15.421,0,0,1-3.26,2.051l.574-.242a3,3,0,0,1-.344.123,2.486,2.486,0,0,0-1.434,1.1,2.4,2.4,0,0,0,.861,3.283,2.484,2.484,0,0,0,1.849.242,7.88,7.88,0,0,0,1.616-.71c.494-.272.971-.575,1.437-.891.628-.426,1.234-.885,1.826-1.36a8.6,8.6,0,0,0,1.039-.943,2.526,2.526,0,0,0,.7-1.7,2.439,2.439,0,0,0-.7-1.7,2.4,2.4,0,0,0-3.394,0Z"/><path class="a" d="M221.877,250.18c.094,1.791.1,3.593.053,5.385-.012.426-.027.853-.058,1.278-.01.141-.014.291-.037.431.117-.709-.1.141-.145.281a6.952,6.952,0,0,1-1.409,2.249,5.1,5.1,0,0,1-.507.468c.39-.3-.341.176-.422.221-.411.23-.834.432-1.261.629-.263.114-.3.13-.1.046q-.23.093-.462.183c-.235.091-.472.178-.709.263-.565.2-1.134.388-1.707.566-2.1.654-4.238,1.176-6.312,1.906a2.46,2.46,0,0,0-1.677,2.952,2.422,2.422,0,0,0,2.953,1.676c2.318-.815,4.716-1.374,7.05-2.141,2.351-.772,5-1.677,6.714-3.549a10.627,10.627,0,0,0,2.87-6.872c.084-1.985.071-3.988-.033-5.972a2.451,2.451,0,0,0-2.4-2.4,2.423,2.423,0,0,0-2.4,2.4Z"/><path class="a" d="M279.977,261.484c-.555-.07.38.059-.151-.019l-.632-.093q-.734-.113-1.464-.245-1.458-.262-2.9-.6c-1.011-.237-2.017-.5-3.007-.814-.449-.142-.9-.292-1.337-.456-.21-.078-.418-.158-.625-.243.382.156-.078-.037-.2-.1a11.2,11.2,0,0,1-1.023-.539c-.166-.1-.323-.211-.485-.317-.572-.371.262.266-.26-.2-.181-.161-.361-.319-.53-.492,0,0-.485-.544-.261-.259a2.974,2.974,0,0,1-.563-1,32.181,32.181,0,0,1-.985-6.921,2.454,2.454,0,0,0-2.4-2.4,2.421,2.421,0,0,0-2.4,2.4,31.465,31.465,0,0,0,1.241,8.443,9.756,9.756,0,0,0,4.882,5.247c4.011,2.031,8.682,2.84,13.1,3.4a2.413,2.413,0,0,0,2.4-2.4,2.461,2.461,0,0,0-2.4-2.4Z"/><path class="a" d="M210.189,267.828c6.649,6.485,16.849,8.8,25.784,9.7a64.6,64.6,0,0,0,30.426-4.011,35.263,35.263,0,0,0,12.642-8.2c2.112-2.252-1.276-5.653-3.394-3.394-5.807,6.192-14.542,8.974-22.7,10.319a61.7,61.7,0,0,1-28.288-1.817c-3.99-1.255-8.044-3.03-11.076-5.988-2.213-2.158-5.61,1.233-3.394,3.395Z"/><path class="a" d="M254.258,163.649c1.216,3.93,2.506,7.85,4.079,11.654a41.372,41.372,0,0,0,5.634,9.7c4.536,5.845,10.732,11.342,18.026,13.31,2.986.806,4.26-3.823,1.276-4.628-6.361-1.716-11.811-6.722-15.723-11.841-4.394-5.75-6.549-12.636-8.664-19.468-.91-2.942-5.545-1.687-4.628,1.276Z"/><path class="a" d="M254.316,161.358a53.814,53.814,0,0,1-16.805,15.949,54.415,54.415,0,0,1-5.215,2.732c-.9.409-1.8.8-2.729,1.137a4.665,4.665,0,0,0-1.109.349q-.355-.033.02.111a2.73,2.73,0,0,1,.344.58c-.351-.193.339-3.884.443-4.619.28-1.976.607-3.951.773-5.941.173-2.087-2.737-3.148-4.1-1.7-7.336,7.829-14.794,15.58-22.8,22.728-2.31,2.061,1.094,5.446,3.394,3.394,8.01-7.148,15.468-14.9,22.805-22.727l-4.1-1.7c-.274,3.289-1.044,6.529-1.193,9.829-.084,1.849.433,3.449,2.146,4.358,1.939,1.029,4.088.212,5.951-.551a57.552,57.552,0,0,0,18.275-11.873,62.1,62.1,0,0,0,8.044-9.639c1.746-2.557-2.411-4.961-4.145-2.422Z"/><path class="c" d="M201.906,266.008a27.267,27.267,0,0,1,4.7-9.218,39.613,39.613,0,0,1,5.9-6.49,17.006,17.006,0,0,1,8.666-3.326,70.07,70.07,0,0,1,14.141-.421,3.792,3.792,0,0,1,3.629,3.771,3.705,3.705,0,0,1-3.14,3.451c-2.151.333-5.12.428-8.695,1.077-4.09.743-4.2,1.123-6.217,3l-.188.28c4.018-.082,8.8.152,10.922,1.121.8.363,3.7,2.051,4.419,2.549,3.389,2.344,5.155,4.05,6.208,6.237a4.982,4.982,0,0,1-.208,3.69c-.418.847-1.826,1.961-4.044,1.264a4.666,4.666,0,0,1,1.4,4.562,4.44,4.44,0,0,1-4.086,3.131c.9.851.407,3.124-.293,4.107-.731,1.028-2.811,1.111-3.9.722a18.36,18.36,0,0,0-2.824-.9c-.06.314-.095.494-.095.494-.214,1.113-.65,3.7-1.006,4.774-1.007,3.135-2.449,6.608-5.317,8.291a46.759,46.759,0,0,1-4.382,1.764c-1.24.58-2.341,3.417-3,5.408a.081.081,0,0,1-.105.051c-6.222-2.044-13.51-4.54-19.344-6.42a.745.745,0,0,1-.472-.963c.958-2.689,1.58-4.139,2.171-5.923a85.362,85.362,0,0,0,2-9.052c1.177-7.994,1.54-11.135,2.591-15.139C201.526,267.232,201.716,266.6,201.906,266.008Z"/><path class="a" d="M215.9,260.808a60.036,60.036,0,0,1,8.438-.26,32.949,32.949,0,0,1,4.118.333c.592.1,1.165.243,1.745.392.139.043.277.089.414.139-.246-.111-.272-.121-.076-.029.215.1.424.218.634.332a30.322,30.322,0,0,1,7.15,4.958c.745.745,1.772,1.8,1.79,2.841a3.374,3.374,0,0,1-.155.977c-.128.467.142-.085-.047.125a.352.352,0,0,1-.189.13,1.561,1.561,0,0,1-.844,0c-3.012-.653-4.3,3.973-1.276,4.629,3.886.843,6.923-1.366,7.282-5.308.305-3.347-2.241-6.148-4.661-8.121a38.423,38.423,0,0,0-7.108-4.631,19.644,19.644,0,0,0-7.762-1.523,59.446,59.446,0,0,0-9.453.216,2.471,2.471,0,0,0-2.4,2.4,2.417,2.417,0,0,0,2.4,2.4Z"/><path class="a" d="M221.678,269.07a18.686,18.686,0,0,1,6.86,1.217c-.077-.03.834.34.434.17.238.1.474.207.709.315q.741.338,1.468.7c1.02.515,2.022,1.066,3,1.665.426.262.846.534,1.256.82.067.047.587.429.392.278s.26.218.309.261a3.052,3.052,0,0,1,.737.844,2.3,2.3,0,0,1,.283.8c.01.122-.006.694.008.582.032-.237-.117.4-.112.425q-.085.246.081-.173c-.039.083-.082.165-.129.244-.039.057-.388.54-.2.321s-.263.241-.319.291q-.186.16.046-.032c-.095.066-.194.127-.3.184a3.029,3.029,0,0,1-.884.3,2.468,2.468,0,0,0-2.4,2.4,2.416,2.416,0,0,0,2.4,2.4c2.872-.285,5.638-1.939,6.4-4.893.868-3.364-.9-6.188-3.517-8.1a28.657,28.657,0,0,0-16.519-5.816c-3.089-.015-3.093,4.785,0,4.8Z"/><path class="a" d="M223.28,277.878c.089.011.475.061.018,0l.324.046q.375.055.748.12c.525.091,1.048.2,1.566.322q.725.176,1.433.4.357.115.71.246c.1.037.2.076.3.116.158.062.447.194.136.053a25.215,25.215,0,0,1,4.753,2.933c.042.032.415.316.214.162-.185-.142.126.1.13.1.094.041.36.547-.153-.2.042.06.157.3-.016-.057s-.043-.086-.025.029c.041.25-.026-.305-.034-.291a2.161,2.161,0,0,0,0,.6c0,.359-.094-.128.029-.175a1.3,1.3,0,0,0-.045.231c-.049.174-.084.351-.139.524-.023.071-.057.143-.074.214-.07.3.24-.416.076-.173-.072.106-.371.581-.107.261.241-.291.082-.1.025-.045-.277.282.134-.138.168-.125a1.22,1.22,0,0,0-.182.1c-.263.143.473-.119.171-.073-.167.026-.349.094-.515.133-.07.017-.35.066.011,0,.4-.072-.085-.009-.149-.008-.176,0-.362-.029-.536-.015-.242.02.253.034.274.044a1.487,1.487,0,0,0-.273-.051,6.775,6.775,0,0,1-.866-.291,14.283,14.283,0,0,0-3.488-.879,5.858,5.858,0,0,0-3.694.97,2.4,2.4,0,1,0,2.423,4.145c.107-.067.22-.128.327-.2.384-.242.009-.043-.053,0a4.027,4.027,0,0,1,.679-.2c.025.087-.622-.038-.2.045.126.024.288.019.412.03-.1-.009-.471-.094-.022.008.168.038.336.071.5.113.88.22,1.7.624,2.571.858,2.241.6,5.074.1,6.408-1.948,1.13-1.733,1.56-4.481.416-6.3a6.545,6.545,0,0,0-1.758-1.614c-.485-.367-.976-.727-1.477-1.073a22.077,22.077,0,0,0-2.646-1.59,25.288,25.288,0,0,0-8.381-2.3,2.4,2.4,0,0,0-2.4,2.4,2.473,2.473,0,0,0,2.4,2.4Z"/><path class="a" d="M204.539,255.579c-7.438,9.7-6.63,22.359-9.551,33.65a39.912,39.912,0,0,1-1.175,3.956,29.325,29.325,0,0,0-1.6,4.492c-.489,2.584,1.72,3.459,3.71,4.108q2.636.859,5.263,1.739c3.651,1.217,7.3,2.448,10.952,3.658,1.048.346,2.08.843,3.173.41a3.184,3.184,0,0,0,1.717-2.26,17.31,17.31,0,0,1,.82-2c.156-.312.324-.614.506-.911.046-.074.365-.464.156-.3a10.51,10.51,0,0,1,2.646-.991,11.671,11.671,0,0,0,2.8-1.482,12.918,12.918,0,0,0,3.607-4.342,32.858,32.858,0,0,0,2.945-9.558,2.463,2.463,0,0,0-1.676-2.952,2.421,2.421,0,0,0-2.952,1.676c-.706,3.729-1.371,8.218-4.3,10.945-1.741,1.622-4.417,1.506-6.174,3.079-1.716,1.538-2.52,4.1-3.233,6.213l1.1-1.434-.1.051,1.849-.242c-3.277-1.078-6.546-2.177-9.818-3.272q-2.406-.806-4.815-1.606-1.2-.4-2.411-.794a11.484,11.484,0,0,1-1.99-.656l.861.861-.009.06v1.276c.255-1.792,1.306-3.639,1.914-5.351a50.353,50.353,0,0,0,1.363-5.083c.994-4.139,1.434-8.39,2.078-12.593.981-6.4,2.475-12.69,6.488-17.925a2.413,2.413,0,0,0-.861-3.283,2.459,2.459,0,0,0-3.284.861Z"/><path class="a" d="M208.684,258a39.489,39.489,0,0,1,3.771-4.368,12.139,12.139,0,0,1,3.842-2.879c3.714-1.72,8.174-1.845,12.2-1.955q2.623-.072,5.246.061c1.062.053,2.4-.144,2.765,1.028.341,1.088-.836,1.5-1.635,1.615-1.881.266-3.838.371-5.742.626a25.057,25.057,0,0,0-6.363,1.383,12.335,12.335,0,0,0-3.573,2.64c-2.262,2.114,1.138,5.5,3.394,3.394.292-.273.58-.55.875-.82.093-.085.839-.679.394-.366a5.943,5.943,0,0,1,.665-.407c.387-.206.108-.052.018-.016a7.284,7.284,0,0,1,.725-.233,39.753,39.753,0,0,1,6.921-1.128c2.056-.205,4.379-.157,6.2-1.248a5.963,5.963,0,0,0,2.806-6.356,6.216,6.216,0,0,0-4.434-4.592,23.352,23.352,0,0,0-5.879-.4c-4.885-.042-10.28.1-14.913,1.763-4.972,1.787-8.337,5.713-11.429,9.839a2.415,2.415,0,0,0,.861,3.283,2.457,2.457,0,0,0,3.284-.861Z"/></svg>